<svg xmlns="http://www.w3.org/2000/svg" width="18.679" height="22.999" viewBox="0 0 18.679 22.999">
  <g id="delete_1_" data-name="delete (1)" transform="translate(0.003 0.001)">
    <path id="Path_10101" data-name="Path 10101" d="M222.937,154.7a.539.539,0,0,0-.539.539v10.18a.539.539,0,0,0,1.077,0v-10.18A.539.539,0,0,0,222.937,154.7Zm0,0" transform="translate(-210.423 -146.372)" fill="#fff"/>
    <path id="Path_10102" data-name="Path 10102" d="M104.937,154.7a.539.539,0,0,0-.539.539v10.18a.539.539,0,0,0,1.077,0v-10.18A.539.539,0,0,0,104.937,154.7Zm0,0" transform="translate(-98.778 -146.372)" fill="#fff"/>
    <path id="Path_10103" data-name="Path 10103" d="M1.526,6.845v13.27a2.972,2.972,0,0,0,.79,2.049A2.652,2.652,0,0,0,4.241,23H14.432a2.652,2.652,0,0,0,1.924-.832,2.972,2.972,0,0,0,.79-2.049V6.845A2.057,2.057,0,0,0,16.618,2.8H13.861V2.126A2.116,2.116,0,0,0,11.728,0H6.945A2.116,2.116,0,0,0,4.812,2.126V2.8H2.054a2.057,2.057,0,0,0-.528,4.046ZM14.432,21.92H4.241a1.706,1.706,0,0,1-1.637-1.8V6.893H16.069V20.116a1.706,1.706,0,0,1-1.637,1.8ZM5.889,2.126a1.038,1.038,0,0,1,1.056-1.05h4.783a1.038,1.038,0,0,1,1.056,1.05V2.8H5.889ZM2.054,3.877H16.618a.969.969,0,0,1,0,1.939H2.054a.969.969,0,1,1,0-1.939Zm0,0" transform="translate(0)" fill="#fff"/>
    <path id="Path_10104" data-name="Path 10104" d="M163.937,154.7a.539.539,0,0,0-.539.539v10.18a.539.539,0,0,0,1.077,0v-10.18A.539.539,0,0,0,163.937,154.7Zm0,0" transform="translate(-154.6 -146.372)" fill="#fff"/>
  </g>
</svg>
