<svg xmlns="http://www.w3.org/2000/svg" width="19.502" height="19.498" viewBox="0 0 19.502 19.498">
  <path id="Union_9" data-name="Union 9" d="M10638.609-1146.5a.61.61,0,0,1-.61-.61v-4.876a.612.612,0,0,1,.61-.61.611.611,0,0,1,.609.61v4.266h17.063v-4.266a.611.611,0,0,1,.609-.61.61.61,0,0,1,.61.61v4.876a.61.61,0,0,1-.61.61Zm8.717-5.052-4.267-4.2a.6.6,0,0,1,0-.861.619.619,0,0,1,.87,0l3.215,3.17v-11.94a.612.612,0,0,1,.615-.61.613.613,0,0,1,.615.61v11.94l3.215-3.17a.618.618,0,0,1,.869,0,.6.6,0,0,1,0,.861l-4.264,4.2a.612.612,0,0,1-.435.176A.611.611,0,0,1,10647.326-1151.554Z" transform="translate(-10637.999 1166)" fill="#fff"/>
</svg>
