<svg id="Group_5185" data-name="Group 5185" xmlns="http://www.w3.org/2000/svg" width="20.9" height="20.51" viewBox="0 0 20.9 20.51">
  <path id="Path_466" data-name="Path 466" d="M25.832,114.3H6.427c-.408,0-.727.452-.727.976s.337.976.727.976H25.849c.408,0,.727-.452.727-.976S26.24,114.3,25.832,114.3Z" transform="translate(-5.676 -95.741)" fill="#fff"/>
  <path id="Path_467" data-name="Path 467" d="M5.619,20.818,5.6,24.635a.831.831,0,0,0,.234.587.779.779,0,0,0,.565.235l3.78-.02a.779.779,0,0,0,.565-.235L23.8,12.087a.83.83,0,0,0,0-1.155l-3.741-3.8a.821.821,0,0,0-1.15,0L16.3,9.778,5.853,20.25A.874.874,0,0,0,5.619,20.818ZM19.493,8.858,22.124,11.5l-1.481,1.488-2.631-2.643ZM7.237,21.17l9.626-9.67,2.631,2.643L9.867,23.793l-2.65.02Z" transform="translate(-5.6 -6.9)" fill="#fff"/>
</svg>
