<svg xmlns="http://www.w3.org/2000/svg" width="24.5" height="30.625" viewBox="0 0 24.5 30.625"><defs><style>.a{opacity:0.2;}</style></defs><g class="a" transform="translate(-6)"><path d="M32.271,25H19.51a.51.51,0,1,0,0,1.021h12.76a.51.51,0,1,0,0-1.021Z" transform="translate(-6.365 -12.24)"/><path d="M19.51,18.021h5.1a.51.51,0,1,0,0-1.021h-5.1a.51.51,0,1,0,0,1.021Z" transform="translate(-6.365 -8.323)"/><path d="M32.271,33H19.51a.51.51,0,0,0,0,1.021h12.76a.51.51,0,0,0,0-1.021Z" transform="translate(-6.365 -16.156)"/><path d="M32.271,41H19.51a.51.51,0,1,0,0,1.021h12.76a.51.51,0,1,0,0-1.021Z" transform="translate(-6.365 -20.073)"/><path d="M32.271,49H19.51a.51.51,0,1,0,0,1.021h12.76a.51.51,0,1,0,0-1.021Z" transform="translate(-6.365 -23.99)"/><path d="M27.948,7.445V0H6V28.073H8.552v2.552H30.5V10Zm-4.594-3.15,4.594,4.594.81.81h-5.4ZM7.021,27.052V1.021H26.927v5.4L23.055,2.552H8.552v24.5ZM9.573,29.6V3.573h12.76v7.146h7.146V29.6Z"/></g></svg>