<svg xmlns="http://www.w3.org/2000/svg" width="19.5" height="19.498" viewBox="0 0 19.5 19.498"><defs><style>.a{fill:#fff;}</style></defs><path class="a" d="M18.891,22a.61.61,0,0,0-.609.609v4.266H1.219V22.605a.609.609,0,0,0-1.219,0V27.48a.61.61,0,0,0,.609.609H18.891a.61.61,0,0,0,.609-.609V22.605A.609.609,0,0,0,18.891,22Z" transform="translate(0 -8.592)"/><path class="a" d="M9.058,5.242l3.214-3.169V14.013a.615.615,0,0,0,1.231,0V2.073l3.214,3.169a.619.619,0,0,0,.87,0,.6.6,0,0,0,0-.862L13.323.176a.627.627,0,0,0-.871,0L8.187,4.38a.6.6,0,0,0,0,.862A.619.619,0,0,0,9.058,5.242Z" transform="translate(-3.128)"/></svg>